PathFileType	4	(X/Y/Z)	Running2.trc
DataRate	CameraRate	NumFrames	NumMarkers	Units	OrigDataRate	OrigDataStartFrame	OrigNumFrames
100	100	89	2	mm	100	3751	6000
Frame#	Time	mal_lat_left			mal_lat_right		
		X	Y	Z	X	Y	Z	
3751	18.75	974.500549316406	349.018737792969	90.7901306152344	495.116882324219	135.133117675781	303.435302734375
3752	18.755	964.556030273438	348.410369873047	92.1345825195312	500.205230712891	136.162094116211	307.177856445312
3753	18.76	953.72265625	348.027099609375	93.6043319702148	506.016418457031	137.227935791016	310.578674316406
3754	18.765	942.583068847656	347.997039794922	94.7866363525391	512.51123046875	138.715209960938	313.459259033203
3755	18.77	931.530639648438	348.452026367188	95.6645202636719	519.609680175781	140.194259643555	316.029296875
3756	18.775	920.772583007812	349.249389648438	96.5840530395508	527.057189941406	141.583923339844	318.113220214844
3757	18.78	909.898071289062	350.145233154297	97.3016052246094	534.864929199219	143.084320068359	319.658996582031
3758	18.785	898.433471679688	351.202026367188	97.7732391357422	542.677490234375	144.915802001953	320.713317871094
3759	18.79	887.026306152344	351.740661621094	97.9294281005859	551.462219238281	145.826278686523	321.249633789062
3760	18.795	875.368286132812	351.991333007812	98.0902328491211	559.958679199219	147.107482910156	321.205780029297
3761	18.8	863.435974121094	351.977569580078	98.3870086669922	568.558471679688	148.600112915039	320.478179931641
3762	18.805	851.623046875	351.561798095703	98.6332244873047	577.684814453125	149.439224243164	319.305847167969
3763	18.81	839.497619628906	351.363616943359	99.0778579711914	586.710327148438	150.757247924805	317.412719726562
3764	18.815	827.403564453125	351.014404296875	99.620964050293	595.870544433594	151.987518310547	314.954620361328
3765	18.82	815.254699707031	350.802154541016	100.219985961914	605.055297851562	153.080261230469	312.001159667969
3766	18.825	803.218139648438	350.523834228516	100.870590209961	614.360778808594	154.356079101562	308.454711914062
3767	18.83	791.141235351562	350.478088378906	101.703384399414	623.668518066406	155.437240600586	304.460144042969
3768	18.835	779.201477050781	350.346130371094	102.487289428711	632.996887207031	156.551010131836	300.014953613281
3769	18.84	767.283203125	350.389404296875	103.520057678223	642.472229003906	157.761077880859	295.195983886719
3770	18.845	755.437255859375	350.486358642578	104.743759155273	651.821350097656	158.970794677734	290.018524169922
3771	18.85	743.739074707031	350.721221923828	106.178329467773	661.373352050781	160.349395751953	284.574249267578
3772	18.855	732.166870117188	351.035888671875	107.858963012695	671.075988769531	161.851196289062	278.837005615234
3773	18.86	720.776672363281	351.412200927734	109.818336486816	680.981140136719	163.34733581543	272.842071533203
3774	18.865	709.627197265625	351.876708984375	112.079635620117	690.998596191406	165.036392211914	266.576141357422
3775	18.87	698.785339355469	352.3681640625	114.693656921387	701.210815429688	166.708999633789	260.23388671875
3776	18.875	688.058410644531	353.017517089844	117.537254333496	711.73486328125	168.499359130859	253.611373901367
3777	18.88	677.747253417969	353.725677490234	120.749443054199	722.498413085938	170.38623046875	246.952774047852
3778	18.885	667.704895019531	354.541839599609	124.224983215332	733.555114746094	172.204666137695	240.183883666992
3779	18.89	658.078430175781	355.471405029297	127.936584472656	744.968872070312	174.151733398438	233.273666381836
3780	18.895	648.7265625	356.421844482422	131.81770324707	756.613525390625	176.012756347656	226.426483154297
3781	18.9	639.788940429688	357.619384765625	135.89875793457	768.594848632812	177.863739013672	219.496780395508
3782	18.905	631.281311035156	358.830749511719	140.044692993164	780.780517578125	179.692611694336	212.578186035156
3783	18.91	623.20458984375	360.172943115234	144.369674682617	793.427185058594	181.376876831055	205.554809570312
3784	18.915	615.444580078125	361.591796875	148.816452026367	806.236450195312	182.941055297852	198.681137084961
3785	18.92	608.129577636719	363.077484130859	153.326782226562	819.416748046875	184.456481933594	191.678649902344
3786	18.925	601.121398925781	364.580261230469	157.909423828125	832.334716796875	185.302841186523	185.115432739258
3787	18.93	594.504455566406	366.237976074219	162.523498535156	846.380493164062	186.913101196289	178.213607788086
3788	18.935	588.119384765625	367.787384033203	167.191986083984	860.134033203125	187.891876220703	171.692993164062
3789	18.94	582.196350097656	369.561401367188	171.797271728516	873.954956054688	188.649688720703	165.412109375
3790	18.945	576.390258789062	371.247802734375	176.542984008789	887.973693847656	189.449661254883	159.180862426758
3791	18.95	570.967590332031	372.959777832031	181.204971313477	901.967163085938	189.959228515625	153.293762207031
3792	18.955	565.764099121094	374.698974609375	185.920440673828	916.00537109375	190.37321472168	147.751861572266
3793	18.96	560.913879394531	376.429138183594	190.575775146484	929.77734375	190.496383666992	142.727066040039
3794	18.965	556.218994140625	378.107940673828	195.176361083984	943.438903808594	190.568496704102	137.853897094727
3795	18.97	551.706115722656	379.810089111328	199.756256103516	956.7900390625	190.435638427734	133.460678100586
3796	18.975	547.340515136719	381.462951660156	204.248504638672	969.797302246094	190.136016845703	129.337936401367
3797	18.98	543.056518554688	383.125396728516	208.689422607422	982.234436035156	189.772308349609	125.697341918945
3798	18.985	538.854919433594	384.602264404297	212.898406982422	994.137268066406	189.22785949707	122.408737182617
3799	18.99	534.669860839844	386.190246582031	217.247756958008	1005.28991699219	188.648651123047	119.533004760742
3800	18.995	530.328430175781	387.695587158203	221.706115722656	1015.62957763672	188.020355224609	117.111885070801
3801	19.0	525.739440917969	389.052703857422	226.47053527832	1025.0908203125	187.38623046875	115.193519592285
3802	19.005	521.290161132812	390.37548828125	231.384918212891	1033.62866210938	186.985092163086	113.549125671387
3803	19.01	516.936462402344	391.616149902344	236.425720214844	1041.03771972656	186.824981689453	112.107566833496
3804	19.015	512.926025390625	392.802459716797	241.543838500977	1047.43811035156	186.784698486328	110.823890686035
3805	19.02	509.275177001953	393.880981445312	246.668304443359	1052.62841796875	186.809921264648	109.352630615234
3806	19.025	506.049224853516	394.960815429688	251.776947021484	1056.51770019531	186.897354125977	107.771942138672
3807	19.03	503.341339111328	396.081085205078	256.850769042969	1059.2451171875	186.958389282227	105.888656616211
3808	19.035	501.061492919922	397.098510742188	261.843719482422	1060.9150390625	186.986785888672	103.672470092773
3809	19.04	499.33203125	398.212890625	266.712158203125	1061.38366699219	186.976364135742	101.217132568359
3810	19.045	497.9853515625	399.249298095703	271.527893066406	1060.87036132812	186.866394042969	98.4187927246094
3811	19.05	497.243072509766	400.302825927734	276.170196533203	1059.291015625	186.792449951172	95.6558837890625
3812	19.055	497.030914306641	401.08642578125	280.568298339844	1056.82348632812	186.573181152344	92.6266632080078
3813	19.06	497.372955322266	401.995086669922	284.89990234375	1053.68713378906	186.157699584961	90.1518783569336
3814	19.065	498.239288330078	402.756378173828	289.143188476562	1049.65747070312	186.004135131836	88.0410385131836
3815	19.07	499.647155761719	403.518249511719	293.176666259766	1044.00024414062	186.361831665039	85.3432083129883
3816	19.075	501.710815429688	404.179840087891	297.094360351562	1036.6591796875	187.209197998047	83.0329513549805
3817	19.08	504.335540771484	404.821533203125	300.783416748047	1028.26440429688	188.369445800781	81.4573669433594
3818	19.085	507.624389648438	405.357452392578	304.313507080078	1018.41198730469	189.838607788086	80.7617263793945
3819	19.09	511.521759033203	405.877990722656	307.608367919922	1006.71911621094	192.089263916016	80.9624252319336
3820	19.095	516.155578613281	406.070861816406	310.760803222656	995.720886230469	193.862274169922	82.4603729248047
3821	19.1	521.339111328125	406.6044921875	313.762542724609	986.561706542969	195.033645629883	84.3337249755859
3822	19.105	527.266235351562	407.045776367188	316.406036376953	978.073303222656	196.011337280273	85.8986206054688
3823	19.11	533.75146484375	407.411407470703	318.819458007812	968.804931640625	196.814758300781	87.0532836914062
3824	19.115	540.719055175781	407.588623046875	320.79345703125	958.0	197.441864013672	88.3502655029297
3825	19.12	548.13916015625	407.857086181641	322.502227783203	946.821533203125	197.72624206543	89.4116744995117
3826	19.125	555.957092285156	407.814605712891	323.604125976562	935.702270507812	197.638427734375	90.0093383789062
3827	19.13	564.102661132812	408.012451171875	324.504058837891	924.524108886719	197.345886230469	90.4578628540039
3828	19.135	572.586547851562	408.183349609375	324.898986816406	912.837646484375	196.945388793945	91.0235748291016
3829	19.14	581.199645996094	408.473663330078	324.995452880859	901.018920898438	196.786239624023	91.2862548828125
3830	19.145	590.033203125	408.819122314453	324.587799072266	889.130615234375	196.860794067383	91.453483581543
3831	19.15	598.922302246094	409.122406005859	323.766937255859	877.196166992188	196.950439453125	91.7906799316406
3832	19.155	607.999572753906	409.53955078125	322.577606201172	865.138244628906	197.15185546875	92.2570648193359
3833	19.16	617.069091796875	409.872283935547	320.930725097656	853.364807128906	197.486068725586	92.7399444580078
3834	19.165	626.438232421875	410.305236816406	318.851593017578	841.453552246094	197.689590454102	92.9765777587891
3835	19.17	635.862487792969	410.652679443359	316.326751708984	829.402954101562	197.762481689453	93.488410949707
3836	19.175	645.320983886719	411.044525146484	313.394989013672	817.332824707031	197.650970458984	94.0693359375
3837	19.18	654.953125	411.403198242188	310.015197753906	805.27294921875	197.541809082031	94.6930999755859
3838	19.185	664.5263671875	411.665222167969	306.312225341797	793.2783203125	197.313766479492	95.4083023071289
3839	19.19	674.16259765625	411.988708496094	302.174621582031	781.385070800781	196.969940185547	96.3170471191406
